<?xml version="1.0" encoding="UTF-8"?>
<svg width="560px" height="312px" viewBox="0 0 560 312" version="1.1" xmlns="http://www.w3.org/2000/svg" xmlns:xlink="http://www.w3.org/1999/xlink">
    <title>S&amp;P</title>
    <g id="S&amp;P" stroke="none" stroke-width="1" fill="none" fill-rule="evenodd">
        <path d="M193.3335,131.301 C195.454833,131.301 197.2465,130.914 198.7085,130.14 C200.1705,129.366 201.259833,128.341167 201.9765,127.0655 C202.693167,125.789833 203.0515,124.406667 203.0515,122.916 C203.0515,120.995333 202.628667,119.447333 201.783,118.272 C200.937333,117.096667 199.905333,116.200833 198.687,115.5845 C197.468667,114.968167 195.899167,114.359 193.9785,113.757 C192.459167,113.241 191.262333,112.7895 190.388,112.4025 C189.513667,112.0155 188.789833,111.485167 188.2165,110.8115 C187.643167,110.137833 187.3565,109.285 187.3565,108.253 C187.3565,106.934333 187.772167,105.923833 188.6035,105.2215 C189.434833,104.519167 190.5385,104.168 191.9145,104.168 C193.433833,104.168 194.630667,104.5765 195.505,105.3935 C196.379333,106.2105 196.916833,107.192333 197.1175,108.339 L197.1175,108.339 L202.4065,108.339 C202.1485,105.931 201.109333,103.981667 199.289,102.491 C197.468667,101.000333 195.0105,100.255 191.9145,100.255 C189.965167,100.255 188.245167,100.591833 186.7545,101.2655 C185.263833,101.939167 184.117167,102.892333 183.3145,104.125 C182.511833,105.357667 182.1105,106.791 182.1105,108.425 C182.1105,110.288333 182.526167,111.793333 183.3575,112.94 C184.188833,114.086667 185.199333,114.961 186.389,115.563 C187.578667,116.165 189.1195,116.767 191.0115,117.369 C192.5595,117.885 193.777833,118.343667 194.6665,118.745 C195.555167,119.146333 196.3005,119.698167 196.9025,120.4005 C197.5045,121.102833 197.8055,121.998667 197.8055,123.088 C197.8055,124.349333 197.397,125.381333 196.58,126.184 C195.763,126.986667 194.609167,127.388 193.1185,127.388 C191.455833,127.388 190.13,126.915 189.141,125.969 C188.152,125.023 187.585833,123.890667 187.4425,122.572 L187.4425,122.572 L182.1965,122.572 C182.339833,124.292 182.898833,125.811333 183.8735,127.13 C184.848167,128.448667 186.1525,129.4735 187.7865,130.2045 C189.4205,130.9355 191.2695,131.301 193.3335,131.301 Z M212.8555,142.266 L212.8555,125.496 C213.4575,127.244667 214.518167,128.649333 216.0375,129.71 C217.556833,130.770667 219.3915,131.301 221.5415,131.301 C223.6055,131.301 225.447333,130.813667 227.067,129.839 C228.686667,128.864333 229.955167,127.459667 230.8725,125.625 C231.789833,123.790333 232.2485,121.626 232.2485,119.132 C232.2485,116.666667 231.789833,114.516667 230.8725,112.682 C229.955167,110.847333 228.686667,109.442667 227.067,108.468 C225.447333,107.493333 223.6055,107.006 221.5415,107.006 C219.3915,107.006 217.556833,107.536333 216.0375,108.597 C214.518167,109.657667 213.4575,111.062333 212.8555,112.811 L212.8555,112.811 L212.8555,107.307 L207.9535,107.307 L207.9535,142.266 L212.8555,142.266 Z M220.0365,126.958 C218.6605,126.958 217.427833,126.6355 216.3385,125.9905 C215.249167,125.3455 214.389167,124.435333 213.7585,123.26 C213.127833,122.084667 212.8125,120.708667 212.8125,119.132 C212.8125,117.584 213.127833,116.215167 213.7585,115.0255 C214.389167,113.835833 215.249167,112.9185 216.3385,112.2735 C217.427833,111.6285 218.6605,111.306 220.0365,111.306 C222.215167,111.306 223.963833,112.008333 225.2825,113.413 C226.601167,114.817667 227.2605,116.724 227.2605,119.132 C227.2605,121.568667 226.601167,123.482167 225.2825,124.8725 C223.963833,126.262833 222.215167,126.958 220.0365,126.958 Z M247.8145,131.301 C250.107833,131.301 252.171833,130.813667 254.0065,129.839 C255.841167,128.864333 257.2745,127.459667 258.3065,125.625 C259.3385,123.790333 259.8545,121.626 259.8545,119.132 C259.8545,116.666667 259.3385,114.516667 258.3065,112.682 C257.2745,110.847333 255.841167,109.442667 254.0065,108.468 C252.171833,107.493333 250.107833,107.006 247.8145,107.006 C245.521167,107.006 243.464333,107.493333 241.644,108.468 C239.823667,109.442667 238.390333,110.847333 237.344,112.682 C236.297667,114.516667 235.7745,116.666667 235.7745,119.132 C235.7745,121.597333 236.297667,123.7545 237.344,125.6035 C238.390333,127.4525 239.823667,128.864333 241.644,129.839 C243.464333,130.813667 245.521167,131.301 247.8145,131.301 Z M247.8145,127.001 C246.553167,127.001 245.392167,126.714333 244.3315,126.141 C243.270833,125.567667 242.418,124.693333 241.773,123.518 C241.128,122.342667 240.8055,120.880667 240.8055,119.132 C240.8055,117.412 241.128,115.957167 241.773,114.7675 C242.418,113.577833 243.270833,112.696333 244.3315,112.123 C245.392167,111.549667 246.553167,111.263 247.8145,111.263 C249.075833,111.263 250.236833,111.549667 251.2975,112.123 C252.358167,112.696333 253.211,113.577833 253.856,114.7675 C254.501,115.957167 254.8235,117.412 254.8235,119.132 C254.8235,120.880667 254.501,122.342667 253.856,123.518 C253.211,124.693333 252.358167,125.567667 251.2975,126.141 C250.236833,126.714333 249.075833,127.001 247.8145,127.001 Z M269.4865,107.307 L264.5845,107.307 L264.5845,131 L269.4865,131 L269.4865,118.401 C269.4865,115.993 270.074167,114.1655 271.2495,112.9185 C272.424833,111.6715 273.987167,111.048 275.9365,111.048 C277.8285,111.048 279.319167,111.6285 280.4085,112.7895 C281.497833,113.9505 282.0425,115.591667 282.0425,117.713 L282.0425,117.713 L282.0425,131 L286.9445,131 L286.9445,117.197 C286.9445,113.900333 286.113167,111.363333 284.4505,109.586 C282.787833,107.808667 280.5805,106.92 277.8285,106.92 C275.879167,106.92 274.159167,107.407333 272.6685,108.382 C271.177833,109.356667 270.117167,110.732667 269.4865,112.51 L269.486,112.509 L269.4865,107.307 Z M302.1235,131.301 C304.674833,131.301 306.703,130.684667 308.208,129.452 C309.713,128.219333 310.4655,126.614 310.4655,124.636 C310.4655,123.030667 310.071333,121.762167 309.283,120.8305 C308.494667,119.898833 307.548667,119.218 306.445,118.788 C305.341333,118.358 303.900833,117.942333 302.1235,117.541 C300.776167,117.225667 299.737,116.939 299.006,116.681 C298.275,116.423 297.665833,116.064667 297.1785,115.606 C296.691167,115.147333 296.4475,114.545333 296.4475,113.8 C296.4475,112.796667 296.784333,112.001167 297.458,111.4135 C298.131667,110.825833 299.084833,110.532 300.3175,110.532 C301.808167,110.532 303.005,110.926167 303.908,111.7145 C304.811,112.502833 305.362833,113.542 305.5635,114.832 L305.5635,114.832 L310.2075,114.832 C309.834833,112.452667 308.81,110.5535 307.133,109.1345 C305.456,107.7155 303.227167,107.006 300.4465,107.006 C297.7805,107.006 295.695,107.6295 294.19,108.8765 C292.685,110.1235 291.9325,111.750333 291.9325,113.757 C291.9325,115.305 292.312333,116.5305 293.072,117.4335 C293.831667,118.3365 294.749,118.988667 295.824,119.39 C296.899,119.791333 298.2965,120.192667 300.0165,120.594 C301.363833,120.880667 302.4245,121.160167 303.1985,121.4325 C303.9725,121.704833 304.6175,122.084667 305.1335,122.572 C305.6495,123.059333 305.9075,123.718667 305.9075,124.55 C305.9075,125.496 305.570667,126.277167 304.897,126.8935 C304.223333,127.509833 303.298833,127.818 302.1235,127.818 C300.4895,127.818 299.170833,127.416667 298.1675,126.614 C297.164167,125.811333 296.590833,124.765 296.4475,123.475 L296.4475,123.475 L291.6745,123.475 C292.047167,125.940333 293.143667,127.861 294.964,129.237 C296.784333,130.613 299.170833,131.301 302.1235,131.301 Z M326.2035,131.301 C328.496833,131.301 330.560833,130.813667 332.3955,129.839 C334.230167,128.864333 335.6635,127.459667 336.6955,125.625 C337.7275,123.790333 338.2435,121.626 338.2435,119.132 C338.2435,116.666667 337.7275,114.516667 336.6955,112.682 C335.6635,110.847333 334.230167,109.442667 332.3955,108.468 C330.560833,107.493333 328.496833,107.006 326.2035,107.006 C323.910167,107.006 321.853333,107.493333 320.033,108.468 C318.212667,109.442667 316.779333,110.847333 315.733,112.682 C314.686667,114.516667 314.1635,116.666667 314.1635,119.132 C314.1635,121.597333 314.686667,123.7545 315.733,125.6035 C316.779333,127.4525 318.212667,128.864333 320.033,129.839 C321.853333,130.813667 323.910167,131.301 326.2035,131.301 Z M326.2035,127.001 C324.942167,127.001 323.781167,126.714333 322.7205,126.141 C321.659833,125.567667 320.807,124.693333 320.162,123.518 C319.517,122.342667 319.1945,120.880667 319.1945,119.132 C319.1945,117.412 319.517,115.957167 320.162,114.7675 C320.807,113.577833 321.659833,112.696333 322.7205,112.123 C323.781167,111.549667 324.942167,111.263 326.2035,111.263 C327.464833,111.263 328.625833,111.549667 329.6865,112.123 C330.747167,112.696333 331.6,113.577833 332.245,114.7675 C332.89,115.957167 333.2125,117.412 333.2125,119.132 C333.2125,120.880667 332.89,122.342667 332.245,123.518 C331.6,124.693333 330.747167,125.567667 329.6865,126.141 C328.625833,126.714333 327.464833,127.001 326.2035,127.001 Z M347.8755,131 L347.8755,119.003 C347.8755,116.595 348.527667,114.867833 349.832,113.8215 C351.136333,112.775167 352.8635,112.252 355.0135,112.252 L355.0135,112.252 L356.4755,112.252 L356.4755,106.92 C354.526167,106.92 352.806167,107.3715 351.3155,108.2745 C349.824833,109.1775 348.678167,110.403 347.8755,111.951 L347.8755,111.951 L347.8755,107.307 L342.9735,107.307 L342.9735,131 L347.8755,131 Z M369.5905,131.301 C372.141833,131.301 374.17,130.684667 375.675,129.452 C377.18,128.219333 377.9325,126.614 377.9325,124.636 C377.9325,123.030667 377.538333,121.762167 376.75,120.8305 C375.961667,119.898833 375.015667,119.218 373.912,118.788 C372.808333,118.358 371.367833,117.942333 369.5905,117.541 C368.243167,117.225667 367.204,116.939 366.473,116.681 C365.742,116.423 365.132833,116.064667 364.6455,115.606 C364.158167,115.147333 363.9145,114.545333 363.9145,113.8 C363.9145,112.796667 364.251333,112.001167 364.925,111.4135 C365.598667,110.825833 366.551833,110.532 367.7845,110.532 C369.275167,110.532 370.472,110.926167 371.375,111.7145 C372.278,112.502833 372.829833,113.542 373.0305,114.832 L373.0305,114.832 L377.6745,114.832 C377.301833,112.452667 376.277,110.5535 374.6,109.1345 C372.923,107.7155 370.694167,107.006 367.9135,107.006 C365.2475,107.006 363.162,107.6295 361.657,108.8765 C360.152,110.1235 359.3995,111.750333 359.3995,113.757 C359.3995,115.305 359.779333,116.5305 360.539,117.4335 C361.298667,118.3365 362.216,118.988667 363.291,119.39 C364.366,119.791333 365.7635,120.192667 367.4835,120.594 C368.830833,120.880667 369.8915,121.160167 370.6655,121.4325 C371.4395,121.704833 372.0845,122.084667 372.6005,122.572 C373.1165,123.059333 373.3745,123.718667 373.3745,124.55 C373.3745,125.496 373.037667,126.277167 372.364,126.8935 C371.690333,127.509833 370.765833,127.818 369.5905,127.818 C367.9565,127.818 366.637833,127.416667 365.6345,126.614 C364.631167,125.811333 364.057833,124.765 363.9145,123.475 L363.9145,123.475 L359.1415,123.475 C359.514167,125.940333 360.610667,127.861 362.431,129.237 C364.251333,130.613 366.637833,131.301 369.5905,131.301 Z M276.0225,175.301 C277.857167,175.301 279.441,174.820833 280.774,173.8605 C282.107,172.900167 282.974167,171.646 283.3755,170.098 C283.6335,169.381333 283.776833,168.879667 283.8055,168.593 L283.8055,168.593 L289.4815,175 L294.5125,175 L278.6885,155.779 C278.057833,155.005 277.592,154.331333 277.291,153.758 C276.99,153.184667 276.8395,152.511 276.8395,151.737 C276.8395,150.819667 277.147667,150.045667 277.764,149.415 C278.380333,148.784333 279.233167,148.469 280.3225,148.469 C281.497833,148.469 282.422333,148.813 283.096,149.501 C283.769667,150.189 284.120833,151.135 284.1495,152.339 C284.178167,152.539667 284.1925,152.855 284.1925,153.285 L284.1925,153.285 L284.1925,153.758 L288.8365,153.758 C288.893833,152.668667 288.7935,151.651 288.5355,150.705 C288.1915,148.870333 287.353,147.351 286.02,146.147 C284.687,144.943 282.759167,144.341 280.2365,144.341 C278.545167,144.341 277.090333,144.6635 275.872,145.3085 C274.653667,145.9535 273.736333,146.806333 273.12,147.867 C272.503667,148.927667 272.1955,150.06 272.1955,151.264 C272.1955,152.324667 272.381833,153.277833 272.7545,154.1235 C273.127167,154.969167 273.6575,155.822 274.3455,156.682 L274.3455,156.682 L274.9045,157.456 L274.6035,157.456 C273.1415,157.456 271.8085,157.8 270.6045,158.488 C269.4005,159.176 268.447333,160.179333 267.745,161.498 C267.042667,162.816667 266.6915,164.379 266.6915,166.185 C266.6915,167.962333 267.0785,169.539 267.8525,170.915 C268.6265,172.291 269.715833,173.366 271.1205,174.14 C272.525167,174.914 274.159167,175.301 276.0225,175.301 Z M276.0655,171.13 C274.632167,171.13 273.421,170.6785 272.432,169.7755 C271.443,168.8725 270.9485,167.632667 270.9485,166.056 C270.9485,164.508 271.3785,163.311167 272.2385,162.4655 C273.0985,161.619833 274.2165,161.197 275.5925,161.197 C276.481167,161.197 277.334,161.419167 278.151,161.8635 C278.968,162.307833 279.627333,162.924167 280.129,163.7125 C280.630667,164.500833 280.8815,165.382333 280.8815,166.357 C280.8815,167.761667 280.43,168.908333 279.527,169.797 C278.624,170.685667 277.470167,171.13 276.0655,171.13 Z M196.6015,219 L196.6015,207.218 L202.0195,207.218 C205.430833,207.218 208.0395,206.393833 209.8455,204.7455 C211.6515,203.097167 212.5545,200.839667 212.5545,197.973 C212.5545,195.077667 211.673,192.798667 209.91,191.136 C208.147,189.473333 205.516833,188.642 202.0195,188.642 L202.0195,188.642 L191.6995,188.642 L191.6995,219 L196.6015,219 Z M201.5035,203.219 L196.6015,203.219 L196.6015,192.684 L201.5035,192.684 C203.624833,192.684 205.165667,193.1355 206.126,194.0385 C207.086333,194.9415 207.5665,196.253 207.5665,197.973 C207.5665,201.470333 205.5455,203.219 201.5035,203.219 L201.5035,203.219 Z M226.3575,219.301 C228.5075,219.301 230.342167,218.770667 231.8615,217.71 C233.380833,216.649333 234.455833,215.244667 235.0865,213.496 L235.0865,213.496 L235.0865,219 L239.9885,219 L239.9885,195.307 L235.0865,195.307 L235.0865,200.811 C234.455833,199.062333 233.380833,197.657667 231.8615,196.597 C230.342167,195.536333 228.5075,195.006 226.3575,195.006 C224.2935,195.006 222.451667,195.493333 220.832,196.468 C219.212333,197.442667 217.943833,198.847333 217.0265,200.682 C216.109167,202.516667 215.6505,204.666667 215.6505,207.132 C215.6505,209.626 216.109167,211.790333 217.0265,213.625 C217.943833,215.459667 219.212333,216.864333 220.832,217.839 C222.451667,218.813667 224.2935,219.301 226.3575,219.301 Z M227.8625,214.958 C225.683833,214.958 223.942333,214.262833 222.638,212.8725 C221.333667,211.482167 220.6815,209.568667 220.6815,207.132 C220.6815,204.695333 221.333667,202.781833 222.638,201.3915 C223.942333,200.001167 225.683833,199.306 227.8625,199.306 C229.2385,199.306 230.471167,199.6285 231.5605,200.2735 C232.649833,200.9185 233.509833,201.835833 234.1405,203.0255 C234.771167,204.215167 235.0865,205.584 235.0865,207.132 C235.0865,208.708667 234.771167,210.084667 234.1405,211.26 C233.509833,212.435333 232.649833,213.3455 231.5605,213.9905 C230.471167,214.6355 229.2385,214.958 227.8625,214.958 Z M250.7815,219 L250.7815,207.003 C250.7815,204.595 251.433667,202.867833 252.738,201.8215 C254.042333,200.775167 255.7695,200.252 257.9195,200.252 L257.9195,200.252 L259.3815,200.252 L259.3815,194.92 C257.432167,194.92 255.712167,195.3715 254.2215,196.2745 C252.730833,197.1775 251.584167,198.403 250.7815,199.951 L250.7815,199.951 L250.7815,195.307 L245.8795,195.307 L245.8795,219 L250.7815,219 Z M274.9475,219 L274.9475,214.743 L272.5825,214.743 C271.321167,214.743 270.439667,214.485 269.938,213.969 C269.436333,213.453 269.1855,212.521333 269.1855,211.174 L269.1855,211.174 L269.1855,199.478 L274.9045,199.478 L274.9045,195.307 L269.1855,195.307 L269.1855,189.416 L264.2405,189.416 L264.2405,195.307 L260.8435,195.307 L260.8435,199.478 L264.2405,199.478 L264.2405,211.088 C264.2405,213.926 264.892667,215.954167 266.197,217.1725 C267.501333,218.390833 269.414833,219 271.9375,219 L271.9375,219 L274.9475,219 Z M284.4505,195.307 L279.5485,195.307 L279.5485,219 L284.4505,219 L284.4505,206.401 C284.4505,203.993 285.038167,202.1655 286.2135,200.9185 C287.388833,199.6715 288.951167,199.048 290.9005,199.048 C292.7925,199.048 294.283167,199.6285 295.3725,200.7895 C296.461833,201.9505 297.0065,203.591667 297.0065,205.713 L297.0065,205.713 L297.0065,219 L301.9085,219 L301.9085,205.197 C301.9085,201.900333 301.077167,199.363333 299.4145,197.586 C297.751833,195.808667 295.5445,194.92 292.7925,194.92 C290.843167,194.92 289.123167,195.407333 287.6325,196.382 C286.141833,197.356667 285.081167,198.732667 284.4505,200.51 L284.45,200.509 L284.4505,195.307 Z M318.1625,219.301 C320.1405,219.301 321.932167,218.9355 323.5375,218.2045 C325.142833,217.4735 326.447167,216.463 327.4505,215.173 C328.453833,213.883 329.113167,212.406667 329.4285,210.744 L329.4285,210.744 L324.1825,210.744 C323.9245,212.12 323.229333,213.223667 322.097,214.055 C320.964667,214.886333 319.5815,215.302 317.9475,215.302 C316.084167,215.302 314.521833,214.714333 313.2605,213.539 C311.999167,212.363667 311.3255,210.557667 311.2395,208.121 L311.2395,208.121 L329.4715,208.121 C329.586167,207.519 329.6435,206.816667 329.6435,206.014 C329.6435,203.95 329.177667,202.0795 328.246,200.4025 C327.314333,198.7255 325.981333,197.406833 324.247,196.4465 C322.512667,195.486167 320.4845,195.006 318.1625,195.006 C315.869167,195.006 313.841,195.493333 312.078,196.468 C310.315,197.442667 308.931833,198.847333 307.9285,200.682 C306.925167,202.516667 306.4235,204.666667 306.4235,207.132 C306.4235,209.626 306.925167,211.790333 307.9285,213.625 C308.931833,215.459667 310.315,216.864333 312.078,217.839 C313.841,218.813667 315.869167,219.301 318.1625,219.301 Z M324.6985,205.885 L311.2395,205.885 C311.354167,203.591667 312.0565,201.857333 313.3465,200.682 C314.6365,199.506667 316.241833,198.919 318.1625,198.919 C319.3665,198.919 320.477333,199.169833 321.495,199.6715 C322.512667,200.173167 323.315333,200.947167 323.903,201.9935 C324.490667,203.039833 324.755833,204.337 324.6985,205.885 L324.6985,205.885 Z M339.2755,219 L339.2755,207.003 C339.2755,204.595 339.927667,202.867833 341.232,201.8215 C342.536333,200.775167 344.2635,200.252 346.4135,200.252 L346.4135,200.252 L347.8755,200.252 L347.8755,194.92 C345.926167,194.92 344.206167,195.3715 342.7155,196.2745 C341.224833,197.1775 340.078167,198.403 339.2755,199.951 L339.2755,199.951 L339.2755,195.307 L334.3735,195.307 L334.3735,219 L339.2755,219 Z M360.9905,219.301 C363.541833,219.301 365.57,218.684667 367.075,217.452 C368.58,216.219333 369.3325,214.614 369.3325,212.636 C369.3325,211.030667 368.938333,209.762167 368.15,208.8305 C367.361667,207.898833 366.415667,207.218 365.312,206.788 C364.208333,206.358 362.767833,205.942333 360.9905,205.541 C359.643167,205.225667 358.604,204.939 357.873,204.681 C357.142,204.423 356.532833,204.064667 356.0455,203.606 C355.558167,203.147333 355.3145,202.545333 355.3145,201.8 C355.3145,200.796667 355.651333,200.001167 356.325,199.4135 C356.998667,198.825833 357.951833,198.532 359.1845,198.532 C360.675167,198.532 361.872,198.926167 362.775,199.7145 C363.678,200.502833 364.229833,201.542 364.4305,202.832 L364.4305,202.832 L369.0745,202.832 C368.701833,200.452667 367.677,198.5535 366,197.1345 C364.323,195.7155 362.094167,195.006 359.3135,195.006 C356.6475,195.006 354.562,195.6295 353.057,196.8765 C351.552,198.1235 350.7995,199.750333 350.7995,201.757 C350.7995,203.305 351.179333,204.5305 351.939,205.4335 C352.698667,206.3365 353.616,206.988667 354.691,207.39 C355.766,207.791333 357.1635,208.192667 358.8835,208.594 C360.230833,208.880667 361.2915,209.160167 362.0655,209.4325 C362.8395,209.704833 363.4845,210.084667 364.0005,210.572 C364.5165,211.059333 364.7745,211.718667 364.7745,212.55 C364.7745,213.496 364.437667,214.277167 363.764,214.8935 C363.090333,215.509833 362.165833,215.818 360.9905,215.818 C359.3565,215.818 358.037833,215.416667 357.0345,214.614 C356.031167,213.811333 355.457833,212.765 355.3145,211.475 L355.3145,211.475 L350.5415,211.475 C350.914167,213.940333 352.010667,215.861 353.831,217.237 C355.651333,218.613 358.037833,219.301 360.9905,219.301 Z" id="Sponsors&amp;Partners" fill="#E2E2E2" fill-rule="nonzero"></path>
    </g>
</svg>