<?xml version="1.0" encoding="UTF-8"?>
<svg width="560px" height="312px" viewBox="0 0 560 312" version="1.1" xmlns="http://www.w3.org/2000/svg" xmlns:xlink="http://www.w3.org/1999/xlink">
    <title>DAZ Marketplace Gray Logo</title>
    <defs>
        <filter id="filter-1">
            <feColorMatrix in="SourceGraphic" type="matrix" values="0 0 0 0 0.847000 0 0 0 0 0.847000 0 0 0 0 0.847000 0 0 0 1.000000 0"></feColorMatrix>
        </filter>
    </defs>
    <g id="DAZ-Marketplace-Gray-Logo" stroke="none" stroke-width="1" fill="none" fill-rule="evenodd">
        <g filter="url(#filter-1)" id="Group-2-Copy">
            <g transform="translate(34.000000, 86.000000)">
                <g id="DAZAPP-Logo" fill="#003680">
                    <path d="M46.1842105,0 C70.3830029,0 90,19.6169971 90,43.8157895 C90,68.0145818 70.3830029,87.6315789 46.1842105,87.6315789 L31.8978172,87.6317386 C33.2715018,84.9809589 34.1195649,82.0138702 34.3040165,78.8684626 L48.5940789,78.8684211 C62.2663966,78.8684211 73.35,67.7848177 73.35,54.1125 C73.35,40.4401823 62.2663966,29.3565789 48.5940789,29.3565789 L41.8026316,29.3565789 C26.142456,29.3565789 13.147353,40.7671111 10.6778752,55.727623 C7.70046986,55.9635188 4.89111225,56.7947945 2.36826796,58.1021794 L2.36842105,0 L46.1842105,0 Z" id="Combined-Shape"></path>
                    <path d="M12.4342105,65.1315789 C19.3014354,65.1315789 24.8684211,70.6985646 24.8684211,77.5657895 C24.8684211,84.4330143 19.3014354,90 12.4342105,90 C5.56698568,90 0,84.4330143 0,77.5657895 C0,70.6985646 5.56698568,65.1315789 12.4342105,65.1315789 Z" id="Path" fill-rule="nonzero"></path>
                </g>
                <path d="M16.9671186,139.691667 C20.9079036,139.691667 24.3342942,138.920833 27.2462902,137.379167 C30.1582862,135.8375 32.3902352,133.687731 33.9421373,130.929861 C35.4940394,128.171991 36.2699904,125.011574 36.2699904,121.448611 C36.2699904,117.885648 35.4940394,114.733796 33.9421373,111.993056 C32.3902352,109.252315 30.1670047,107.128241 27.2724458,105.620833 C24.3778869,104.113426 20.9427778,103.359722 16.9671186,103.359722 L16.9671186,103.359722 L3,103.359722 L3,139.691667 L16.9671186,139.691667 Z M16.182449,131.829167 L11.9452333,131.829167 L11.9452333,111.068056 L16.182449,111.068056 C19.6698694,111.068056 22.3813387,111.975926 24.3168571,113.791667 C26.2523754,115.607407 27.2201345,118.159722 27.2201345,121.448611 C27.2201345,124.7375 26.2523754,127.289815 24.3168571,129.105556 C22.3813387,130.921296 19.6698694,131.829167 16.182449,131.829167 L16.182449,131.829167 Z M48.0923455,139.691667 L50.3940429,133.0625 L64.2565389,133.0625 L66.5582364,139.691667 L76.078894,139.691667 L62.5302658,103.616667 L52.2249386,103.616667 L38.6763105,139.691667 L48.0923455,139.691667 Z M61.9548415,126.381944 L52.6957404,126.381944 L57.3514466,113.020833 L61.9548415,126.381944 Z M105.111669,139.691667 L105.111669,132.6 L88.7905413,132.6 L105.007046,110.040278 L105.007046,103.359722 L79.0606384,103.359722 L79.0606384,110.4 L94.910964,110.4 L78.8513932,133.011111 L78.8513932,139.691667 L105.111669,139.691667 Z M130.01185,139.691667 L130.01185,117.080556 L138.01548,139.691667 L145.757553,139.691667 L153.708872,117.131944 L153.708872,139.691667 L162.654105,139.691667 L162.654105,103.616667 L151.773353,103.616667 L141.991139,128.745833 L131.99968,103.616667 L121.066617,103.616667 L121.066617,139.691667 L130.01185,139.691667 Z M175.574997,139.691667 L177.876695,133.0625 L191.739191,133.0625 L194.040888,139.691667 L203.561546,139.691667 L190.012918,103.616667 L179.70759,103.616667 L166.158962,139.691667 L175.574997,139.691667 Z M189.437493,126.381944 L180.178392,126.381944 L184.834098,113.020833 L189.437493,126.381944 Z M215.959325,139.691667 L215.959325,125.970833 L217.999466,125.970833 L226.003096,139.691667 L235.889933,139.691667 L227.101633,125.405556 C229.926444,124.72037 232.079926,123.452778 233.56208,121.602778 C235.044233,119.752778 235.78531,117.508796 235.78531,114.870833 C235.78531,112.643981 235.279634,110.665509 234.268282,108.935417 C233.25693,107.205324 231.739902,105.843519 229.717199,104.85 C227.694495,103.856481 225.218426,103.359722 222.288993,103.359722 L222.288993,103.359722 L207.014092,103.359722 L207.014092,139.691667 L215.959325,139.691667 Z M221.504324,119.958333 L215.959325,119.958333 L215.959325,110.759722 L221.504324,110.759722 C223.248034,110.759722 224.547098,111.170833 225.401516,111.993056 C226.255934,112.815278 226.683143,113.945833 226.683143,115.384722 C226.683143,116.89213 226.264653,118.03125 225.427672,118.802083 C224.590691,119.572917 223.282908,119.958333 221.504324,119.958333 L221.504324,119.958333 Z M249.229316,139.691667 L249.229316,123.401389 L261.784029,139.691667 L272.612469,139.691667 L257.703747,121.140278 L272.612469,103.359722 L261.888652,103.359722 L249.229316,119.341667 L249.229316,103.359722 L240.284082,103.359722 L240.284082,139.691667 L249.229316,139.691667 Z M299.395858,139.691667 L299.395858,132.651389 L285.324117,132.651389 L285.324117,124.583333 L297.826519,124.583333 L297.826519,117.954167 L285.324117,117.954167 L285.324117,110.348611 L299.395858,110.348611 L299.395858,103.359722 L276.378883,103.359722 L276.378883,139.691667 L299.395858,139.691667 Z M321.000427,139.691667 L321.000427,110.348611 L331.044198,110.348611 L331.044198,103.359722 L302.063734,103.359722 L302.063734,110.348611 L312.002882,110.348611 L312.002882,139.691667 L321.000427,139.691667 Z M343.755845,139.691667 L343.755845,126.947222 L349.300843,126.947222 C352.195402,126.947222 354.654034,126.441898 356.676737,125.43125 C358.699441,124.420602 360.225188,123.033102 361.253977,121.26875 C362.282766,119.504398 362.79716,117.491667 362.79716,115.230556 C362.79716,111.599074 361.646312,108.712731 359.344614,106.571528 C357.042917,104.430324 353.694993,103.359722 349.300843,103.359722 L349.300843,103.359722 L334.810612,103.359722 L334.810612,139.691667 L343.755845,139.691667 Z M348.306929,119.906944 L343.755845,119.906944 L343.755845,110.451389 L348.306929,110.451389 C351.898972,110.451389 353.694993,112.044444 353.694993,115.230556 C353.694993,118.348148 351.898972,119.906944 348.306929,119.906944 L348.306929,119.906944 Z M388.063521,139.691667 L388.063521,132.959722 L376.136543,132.959722 L376.136543,103.359722 L367.19131,103.359722 L367.19131,139.691667 L388.063521,139.691667 Z M398.944272,139.691667 L401.24597,133.0625 L415.108466,133.0625 L417.410163,139.691667 L426.930821,139.691667 L413.382193,103.616667 L403.076866,103.616667 L389.528237,139.691667 L398.944272,139.691667 Z M412.806768,126.381944 L403.547667,126.381944 L408.203374,113.020833 L412.806768,126.381944 Z M447.279919,140 C451.987936,140 455.885129,138.775231 458.971496,136.325694 C462.057863,133.876157 464.054411,130.595833 464.96114,126.484722 L464.96114,126.484722 L455.492794,126.484722 C454.79531,128.129167 453.722928,129.431019 452.275649,130.390278 C450.828369,131.349537 449.110815,131.829167 447.122985,131.829167 C444.50742,131.829167 442.39753,130.895602 440.793317,129.028472 C439.189104,127.161343 438.386997,124.651852 438.386997,121.5 C438.386997,118.348148 439.189104,115.830093 440.793317,113.945833 C442.39753,112.061574 444.50742,111.119444 447.122985,111.119444 C449.110815,111.119444 450.828369,111.599074 452.275649,112.558333 C453.722928,113.517593 454.79531,114.836574 455.492794,116.515278 L455.492794,116.515278 L464.96114,116.515278 C464.054411,112.369907 462.057863,109.081019 458.971496,106.648611 C455.885129,104.216204 451.987936,103 447.279919,103 C443.687876,103 440.53176,103.779398 437.811573,105.338194 C435.091385,106.896991 432.990214,109.081019 431.50806,111.890278 C430.025907,114.699537 429.28483,117.902778 429.28483,121.5 C429.28483,125.097222 430.025907,128.300463 431.50806,131.109722 C432.990214,133.918981 435.091385,136.103009 437.811573,137.661806 C440.53176,139.220602 443.687876,140 447.279919,140 Z M493,139.691667 L493,132.651389 L478.928259,132.651389 L478.928259,124.583333 L491.430661,124.583333 L491.430661,117.954167 L478.928259,117.954167 L478.928259,110.348611 L493,110.348611 L493,103.359722 L469.983026,103.359722 L469.983026,139.691667 L493,139.691667 Z" id="DAZMARKETPLACE" fill="#003680" fill-rule="nonzero"></path>
            </g>
        </g>
    </g>
</svg>