<?xml version="1.0" encoding="UTF-8"?>
<svg width="212px" height="207px" viewBox="0 0 212 207" version="1.1" xmlns="http://www.w3.org/2000/svg" xmlns:xlink="http://www.w3.org/1999/xlink">
    <title>DAZ Marketplace Blue Icon</title>
    <g id="DAZ-Marketplace-Blue-Icon" stroke="none" stroke-width="1" fill="none" fill-rule="evenodd">
        <g id="DAZAPP-Logo" transform="translate(10.000000, 13.000000)" fill="#003680">
            <path d="M93.9078947,0 C143.112106,0 183,39.8878942 183,89.0921053 C183,138.296316 143.112106,178.184211 93.9078947,178.184211 L64.8588609,178.184601 C67.652094,172.79456 69.3765143,166.761327 69.7515221,160.3655 L98.8079605,160.365789 C126.60834,160.365789 149.145,137.829129 149.145,110.02875 C149.145,82.2283707 126.60834,59.6917105 98.8079605,59.6917105 L84.9986842,59.6917105 C53.1566303,59.6917105 26.7334542,82.8926843 21.711823,113.311965 C15.6582415,113.792214 9.94493748,115.482741 4.81441374,118.14165 L4.81578947,0 L93.9078947,0 Z" id="Combined-Shape"></path>
            <path d="M25.2828947,132.434211 C39.2462519,132.434211 50.5657895,143.753748 50.5657895,157.717105 C50.5657895,171.680462 39.2462519,183 25.2828947,183 C11.3195375,183 0,171.680462 0,157.717105 C0,143.753748 11.3195375,132.434211 25.2828947,132.434211 Z" id="Path" fill-rule="nonzero"></path>
        </g>
    </g>
</svg>